# xmcd CD database file
#
# Track frame offsets:
#	150
#	11785
#	32535
#	51597
#	68804
#	81889
#	97331
#	110603
#	123004
#	135695
#	148713
#	162842
#	176303
#	195307
#	214473
#	237498
#	270145
#	294797
#
# Disc length: 4318 seconds
#
# Revision: 0
# Processed by: cddbd v1.5.2PL0 Copyright (c) Steve Scherf et al.
# Submitted via: CDex 1.70beta2
#
DISCID=0110dc12
DTITLE=Art Tatum - Giants of Jazz 2
DYEAR=1900
DGENRE=Jazz
TTITLE0=I Ain't Got Nobody: Art Tatum Trio
TTITLE1=Body and Soul: Art Tatum Trio
TTITLE2=Flying Home: Art Tatum Trio 
TTITLE3=Boogie: Art Tatum Trio
TTITLE4=Blues for Art's Sake: Barney Bigard Sextet
TTITLE5=Yesterdays: Art Tatum 
TTITLE6=Willow Weep for Me: Art Tatum 
TTITLE7=Aunt Hagar's Blues: Art Tatum 
TTITLE8=Nice Work If You Can Get It: Art Tatum
TTITLE9=Blue Skies: Art Tatum
TTITLE10=Mr. Freddie Blues: Art Tatum
TTITLE11=Too Marvelous for Words: Ark Tatum
TTITLE12=Idaho: Tatum‑Carter‑Bellson
TTITLE13=More than You Know: The Hampton‑Tatum‑Rich Trio 
TTITLE14=Trio Blues: Presenting the Art Tatum Trio
TTITLE15=All the Things You Are: Art Tatum‑Ben Webster Quartet 
TTITLE16=Night and Day: Art Tatum‑Ben Webster Quartet
TTITLE17=Where or When: Art Tatum‑Ben Webster Quartet
EXTD=
EXTT0=
EXTT1=
EXTT2=
EXTT3=
EXTT4=
EXTT5=
EXTT6=
EXTT7=
EXTT8=
EXTT9=
EXTT10=
EXTT11=
EXTT12=
EXTT13=
EXTT14=
EXTT15=
EXTT16=
EXTT17=
PLAYORDER=
